<?xml version="1.0" encoding="us-ascii" standalone="no"?><svg xmlns="http://www.w3.org/2000/svg" xmlns:xlink="http://www.w3.org/1999/xlink" contentStyleType="text/css" height="442px" preserveAspectRatio="none" style="width:856px;height:442px;background:#FFFFFF;" version="1.1" viewBox="0 0 856 442" width="856px" zoomAndPan="magnify"><defs/><g><!--cluster HLC--><g id="cluster_HLC"><rect fill="none" height="227" rx="2.5" ry="2.5" style="stroke:#181818;stroke-width:1.0;" width="328" x="240" y="7"/><text fill="#000000" font-family="sans-serif" font-size="14" font-weight="bold" lengthAdjust="spacing" textLength="127" x="340.5" y="23.9659">High Level Classes</text></g><!--cluster LLC--><g id="cluster_LLC"><rect fill="none" height="178" rx="2.5" ry="2.5" style="stroke:#181818;stroke-width:1.0;" width="514" x="7" y="258"/><text fill="#000000" font-family="sans-serif" font-size="14" font-weight="bold" lengthAdjust="spacing" textLength="123" x="202.5" y="274.9659">Low Level Classes</text></g><!--cluster CT--><g id="cluster_CT"><rect fill="none" height="86" rx="2.5" ry="2.5" style="stroke:#181818;stroke-width:1.0;" width="305" x="545" y="258"/><text fill="#000000" font-family="sans-serif" font-size="14" font-weight="bold" lengthAdjust="spacing" textLength="133" x="631" y="274.9659">nlpp Custom Types</text></g><!--class NetlinkGeneric--><g id="elem_NetlinkGeneric"><rect codeLine="7" fill="#F1F1F1" height="173.4754" id="NetlinkGeneric" rx="2.5" ry="2.5" style="stroke:#181818;stroke-width:0.5;" width="141" x="410.5" y="45"/><ellipse cx="429.55" cy="61" fill="#ADD1B2" rx="11" ry="11" style="stroke:#181818;stroke-width:1.0;"/><path d="M429.0188,67.9219 Q427.2688,67.9219 426.1281,67.1875 Q425.0031,66.4375 424.4406,65.0938 Q423.8938,63.7344 423.8938,61.9375 Q423.8938,59.9063 424.55,58.4531 Q425.2063,57 426.4875,56.2188 Q427.7688,55.4375 429.6438,55.4375 Q430.5344,55.4375 431.2063,55.625 Q431.8781,55.7969 432.5656,56.1406 L431.7531,58.1563 Q431.1281,57.8438 430.5813,57.7188 Q430.05,57.5938 429.5656,57.5938 Q428.3938,57.5938 427.6906,58.125 Q426.9875,58.6563 426.6906,59.6094 Q426.3938,60.5625 426.3938,61.8281 Q426.3938,63.8438 427.1125,64.8125 Q427.8313,65.7656 429.425,65.7656 Q430.0188,65.7656 430.6438,65.6094 Q431.2688,65.4531 432.0969,65.0781 L432.0969,67.2969 Q431.3625,67.6094 430.5656,67.7656 Q429.7844,67.9219 429.0188,67.9219 Z " fill="#000000"/><text fill="#000000" font-family="sans-serif" font-size="14" lengthAdjust="spacing" textLength="100" x="444.45" y="66.432">NetlinkGeneric</text><line style="stroke:#181818;stroke-width:0.5;" x1="411.5" x2="550.5" y1="77" y2="77"/><text fill="#000000" font-family="sans-serif" font-size="14" lengthAdjust="spacing" textLength="96" x="416.5" y="95.9659">get_interface()</text><text fill="#000000" font-family="sans-serif" font-size="14" lengthAdjust="spacing" textLength="129" x="416.5" y="115.0339">get_list_interfaces()</text><text fill="#000000" font-family="sans-serif" font-size="14" lengthAdjust="spacing" textLength="61" x="416.5" y="134.1018">get_phy()</text><text fill="#000000" font-family="sans-serif" font-size="14" lengthAdjust="spacing" textLength="94" x="416.5" y="153.1697">get_list_phys()</text><text fill="#000000" font-family="sans-serif" font-size="14" lengthAdjust="spacing" textLength="78" x="416.5" y="172.2376">set_if_type()</text><text fill="#000000" font-family="sans-serif" font-size="14" lengthAdjust="spacing" textLength="117" x="416.5" y="191.3055">set_if_frequency()</text><text fill="#000000" font-family="sans-serif" font-size="14" lengthAdjust="spacing" textLength="103" x="416.5" y="210.3734">set_if_channel()</text></g><!--class NetlinkRoute--><g id="elem_NetlinkRoute"><rect codeLine="17" fill="#F1F1F1" height="78.1358" id="NetlinkRoute" rx="2.5" ry="2.5" style="stroke:#181818;stroke-width:0.5;" width="119" x="256.5" y="92.5"/><ellipse cx="271.5" cy="108.5" fill="#ADD1B2" rx="11" ry="11" style="stroke:#181818;stroke-width:1.0;"/><path d="M270.9688,115.4219 Q269.2188,115.4219 268.0781,114.6875 Q266.9531,113.9375 266.3906,112.5938 Q265.8438,111.2344 265.8438,109.4375 Q265.8438,107.4063 266.5,105.9531 Q267.1563,104.5 268.4375,103.7188 Q269.7188,102.9375 271.5938,102.9375 Q272.4844,102.9375 273.1563,103.125 Q273.8281,103.2969 274.5156,103.6406 L273.7031,105.6563 Q273.0781,105.3438 272.5313,105.2188 Q272,105.0938 271.5156,105.0938 Q270.3438,105.0938 269.6406,105.625 Q268.9375,106.1563 268.6406,107.1094 Q268.3438,108.0625 268.3438,109.3281 Q268.3438,111.3438 269.0625,112.3125 Q269.7813,113.2656 271.375,113.2656 Q271.9688,113.2656 272.5938,113.1094 Q273.2188,112.9531 274.0469,112.5781 L274.0469,114.7969 Q273.3125,115.1094 272.5156,115.2656 Q271.7344,115.4219 270.9688,115.4219 Z " fill="#000000"/><text fill="#000000" font-family="sans-serif" font-size="14" lengthAdjust="spacing" textLength="87" x="285.5" y="113.932">NetlinkRoute</text><line style="stroke:#181818;stroke-width:0.5;" x1="257.5" x2="374.5" y1="124.5" y2="124.5"/><text fill="#000000" font-family="sans-serif" font-size="14" lengthAdjust="spacing" textLength="78" x="262.5" y="143.4659">get_kernel()</text><text fill="#000000" font-family="sans-serif" font-size="14" lengthAdjust="spacing" textLength="88" x="262.5" y="162.5339">link_change()</text></g><!--class nlsocket_t--><g id="elem_nlsocket_t"><rect codeLine="24" fill="#F1F1F1" height="32" id="nlsocket_t" rx="2.5" ry="2.5" style="stroke:#181818;stroke-width:0.5;" width="98" x="286" y="296"/><ellipse cx="301" cy="312" fill="#ADD1B2" rx="11" ry="11" style="stroke:#181818;stroke-width:1.0;"/><path d="M300.4688,318.9219 Q298.7188,318.9219 297.5781,318.1875 Q296.4531,317.4375 295.8906,316.0938 Q295.3438,314.7344 295.3438,312.9375 Q295.3438,310.9063 296,309.4531 Q296.6563,308 297.9375,307.2188 Q299.2188,306.4375 301.0938,306.4375 Q301.9844,306.4375 302.6563,306.625 Q303.3281,306.7969 304.0156,307.1406 L303.2031,309.1563 Q302.5781,308.8438 302.0313,308.7188 Q301.5,308.5938 301.0156,308.5938 Q299.8438,308.5938 299.1406,309.125 Q298.4375,309.6563 298.1406,310.6094 Q297.8438,311.5625 297.8438,312.8281 Q297.8438,314.8438 298.5625,315.8125 Q299.2813,316.7656 300.875,316.7656 Q301.4688,316.7656 302.0938,316.6094 Q302.7188,316.4531 303.5469,316.0781 L303.5469,318.2969 Q302.8125,318.6094 302.0156,318.7656 Q301.2344,318.9219 300.4688,318.9219 Z " fill="#000000"/><text fill="#000000" font-family="sans-serif" font-size="14" lengthAdjust="spacing" textLength="66" x="315" y="317.432">nlsocket_t</text></g><!--class nlcb_t--><g id="elem_nlcb_t"><rect codeLine="25" fill="#F1F1F1" height="32" id="nlcb_t" rx="2.5" ry="2.5" style="stroke:#181818;stroke-width:0.5;" width="72" x="299" y="388"/><ellipse cx="314" cy="404" fill="#ADD1B2" rx="11" ry="11" style="stroke:#181818;stroke-width:1.0;"/><path d="M313.4688,410.9219 Q311.7188,410.9219 310.5781,410.1875 Q309.4531,409.4375 308.8906,408.0938 Q308.3438,406.7344 308.3438,404.9375 Q308.3438,402.9063 309,401.4531 Q309.6563,400 310.9375,399.2188 Q312.2188,398.4375 314.0938,398.4375 Q314.9844,398.4375 315.6563,398.625 Q316.3281,398.7969 317.0156,399.1406 L316.2031,401.1563 Q315.5781,400.8438 315.0313,400.7188 Q314.5,400.5938 314.0156,400.5938 Q312.8438,400.5938 312.1406,401.125 Q311.4375,401.6563 311.1406,402.6094 Q310.8438,403.5625 310.8438,404.8281 Q310.8438,406.8438 311.5625,407.8125 Q312.2813,408.7656 313.875,408.7656 Q314.4688,408.7656 315.0938,408.6094 Q315.7188,408.4531 316.5469,408.0781 L316.5469,410.2969 Q315.8125,410.6094 315.0156,410.7656 Q314.2344,410.9219 313.4688,410.9219 Z " fill="#000000"/><text fill="#000000" font-family="sans-serif" font-size="14" lengthAdjust="spacing" textLength="40" x="328" y="409.432">nlcb_t</text></g><!--class nlmsg_t--><g id="elem_nlmsg_t"><rect codeLine="26" fill="#F1F1F1" height="32" id="nlmsg_t" rx="2.5" ry="2.5" style="stroke:#181818;stroke-width:0.5;" width="85" x="419.5" y="296"/><ellipse cx="434.5" cy="312" fill="#ADD1B2" rx="11" ry="11" style="stroke:#181818;stroke-width:1.0;"/><path d="M433.9688,318.9219 Q432.2188,318.9219 431.0781,318.1875 Q429.9531,317.4375 429.3906,316.0938 Q428.8438,314.7344 428.8438,312.9375 Q428.8438,310.9063 429.5,309.4531 Q430.1563,308 431.4375,307.2188 Q432.7188,306.4375 434.5938,306.4375 Q435.4844,306.4375 436.1563,306.625 Q436.8281,306.7969 437.5156,307.1406 L436.7031,309.1563 Q436.0781,308.8438 435.5313,308.7188 Q435,308.5938 434.5156,308.5938 Q433.3438,308.5938 432.6406,309.125 Q431.9375,309.6563 431.6406,310.6094 Q431.3438,311.5625 431.3438,312.8281 Q431.3438,314.8438 432.0625,315.8125 Q432.7813,316.7656 434.375,316.7656 Q434.9688,316.7656 435.5938,316.6094 Q436.2188,316.4531 437.0469,316.0781 L437.0469,318.2969 Q436.3125,318.6094 435.5156,318.7656 Q434.7344,318.9219 433.9688,318.9219 Z " fill="#000000"/><text fill="#000000" font-family="sans-serif" font-size="14" lengthAdjust="spacing" textLength="53" x="448.5" y="317.432">nlmsg_t</text></g><!--class rtnl_link_t--><g id="elem_rtnl_link_t"><rect codeLine="28" fill="#F1F1F1" height="32" id="rtnl_link_t" rx="2.5" ry="2.5" style="stroke:#181818;stroke-width:0.5;" width="97" x="153.5" y="296"/><ellipse cx="168.5" cy="312" fill="#ADD1B2" rx="11" ry="11" style="stroke:#181818;stroke-width:1.0;"/><path d="M167.9688,318.9219 Q166.2188,318.9219 165.0781,318.1875 Q163.9531,317.4375 163.3906,316.0938 Q162.8438,314.7344 162.8438,312.9375 Q162.8438,310.9063 163.5,309.4531 Q164.1563,308 165.4375,307.2188 Q166.7188,306.4375 168.5938,306.4375 Q169.4844,306.4375 170.1563,306.625 Q170.8281,306.7969 171.5156,307.1406 L170.7031,309.1563 Q170.0781,308.8438 169.5313,308.7188 Q169,308.5938 168.5156,308.5938 Q167.3438,308.5938 166.6406,309.125 Q165.9375,309.6563 165.6406,310.6094 Q165.3438,311.5625 165.3438,312.8281 Q165.3438,314.8438 166.0625,315.8125 Q166.7813,316.7656 168.375,316.7656 Q168.9688,316.7656 169.5938,316.6094 Q170.2188,316.4531 171.0469,316.0781 L171.0469,318.2969 Q170.3125,318.6094 169.5156,318.7656 Q168.7344,318.9219 167.9688,318.9219 Z " fill="#000000"/><text fill="#000000" font-family="sans-serif" font-size="14" lengthAdjust="spacing" textLength="65" x="182.5" y="317.432">rtnl_link_t</text></g><!--class nlcache_t--><g id="elem_nlcache_t"><rect codeLine="29" fill="#F1F1F1" height="32" id="nlcache_t" rx="2.5" ry="2.5" style="stroke:#181818;stroke-width:0.5;" width="95" x="23.5" y="296"/><ellipse cx="38.5" cy="312" fill="#ADD1B2" rx="11" ry="11" style="stroke:#181818;stroke-width:1.0;"/><path d="M37.9688,318.9219 Q36.2188,318.9219 35.0781,318.1875 Q33.9531,317.4375 33.3906,316.0938 Q32.8438,314.7344 32.8438,312.9375 Q32.8438,310.9063 33.5,309.4531 Q34.1563,308 35.4375,307.2188 Q36.7188,306.4375 38.5938,306.4375 Q39.4844,306.4375 40.1563,306.625 Q40.8281,306.7969 41.5156,307.1406 L40.7031,309.1563 Q40.0781,308.8438 39.5313,308.7188 Q39,308.5938 38.5156,308.5938 Q37.3438,308.5938 36.6406,309.125 Q35.9375,309.6563 35.6406,310.6094 Q35.3438,311.5625 35.3438,312.8281 Q35.3438,314.8438 36.0625,315.8125 Q36.7813,316.7656 38.375,316.7656 Q38.9688,316.7656 39.5938,316.6094 Q40.2188,316.4531 41.0469,316.0781 L41.0469,318.2969 Q40.3125,318.6094 39.5156,318.7656 Q38.7344,318.9219 37.9688,318.9219 Z " fill="#000000"/><text fill="#000000" font-family="sans-serif" font-size="14" lengthAdjust="spacing" textLength="63" x="52.5" y="317.432">nlcache_t</text></g><!--class nlattr_t--><g id="elem_nlattr_t"><rect codeLine="30" fill="#F1F1F1" height="32" id="nlattr_t" rx="2.5" ry="2.5" style="stroke:#181818;stroke-width:0.5;" width="80" x="422" y="388"/><ellipse cx="437" cy="404" fill="#ADD1B2" rx="11" ry="11" style="stroke:#181818;stroke-width:1.0;"/><path d="M436.4688,410.9219 Q434.7188,410.9219 433.5781,410.1875 Q432.4531,409.4375 431.8906,408.0938 Q431.3438,406.7344 431.3438,404.9375 Q431.3438,402.9063 432,401.4531 Q432.6563,400 433.9375,399.2188 Q435.2188,398.4375 437.0938,398.4375 Q437.9844,398.4375 438.6563,398.625 Q439.3281,398.7969 440.0156,399.1406 L439.2031,401.1563 Q438.5781,400.8438 438.0313,400.7188 Q437.5,400.5938 437.0156,400.5938 Q435.8438,400.5938 435.1406,401.125 Q434.4375,401.6563 434.1406,402.6094 Q433.8438,403.5625 433.8438,404.8281 Q433.8438,406.8438 434.5625,407.8125 Q435.2813,408.7656 436.875,408.7656 Q437.4688,408.7656 438.0938,408.6094 Q438.7188,408.4531 439.5469,408.0781 L439.5469,410.2969 Q438.8125,410.6094 438.0156,410.7656 Q437.2344,410.9219 436.4688,410.9219 Z " fill="#000000"/><text fill="#000000" font-family="sans-serif" font-size="14" lengthAdjust="spacing" textLength="48" x="451" y="409.432">nlattr_t</text></g><!--class dev_info_t--><g id="elem_dev_info_t"><rect codeLine="34" fill="#F1F1F1" height="32" id="dev_info_t" rx="2.5" ry="2.5" style="stroke:#181818;stroke-width:0.5;" width="99" x="734.5" y="296"/><ellipse cx="749.5" cy="312" fill="#ADD1B2" rx="11" ry="11" style="stroke:#181818;stroke-width:1.0;"/><path d="M748.9688,318.9219 Q747.2188,318.9219 746.0781,318.1875 Q744.9531,317.4375 744.3906,316.0938 Q743.8438,314.7344 743.8438,312.9375 Q743.8438,310.9063 744.5,309.4531 Q745.1563,308 746.4375,307.2188 Q747.7188,306.4375 749.5938,306.4375 Q750.4844,306.4375 751.1563,306.625 Q751.8281,306.7969 752.5156,307.1406 L751.7031,309.1563 Q751.0781,308.8438 750.5313,308.7188 Q750,308.5938 749.5156,308.5938 Q748.3438,308.5938 747.6406,309.125 Q746.9375,309.6563 746.6406,310.6094 Q746.3438,311.5625 746.3438,312.8281 Q746.3438,314.8438 747.0625,315.8125 Q747.7813,316.7656 749.375,316.7656 Q749.9688,316.7656 750.5938,316.6094 Q751.2188,316.4531 752.0469,316.0781 L752.0469,318.2969 Q751.3125,318.6094 750.5156,318.7656 Q749.7344,318.9219 748.9688,318.9219 Z " fill="#000000"/><text fill="#000000" font-family="sans-serif" font-size="14" lengthAdjust="spacing" textLength="67" x="763.5" y="317.432">dev_info_t</text></g><!--class dev_capability_t--><g id="elem_dev_capability_t"><rect codeLine="35" fill="#F1F1F1" height="32" id="dev_capability_t" rx="2.5" ry="2.5" style="stroke:#181818;stroke-width:0.5;" width="138" x="561" y="296"/><ellipse cx="576" cy="312" fill="#ADD1B2" rx="11" ry="11" style="stroke:#181818;stroke-width:1.0;"/><path d="M575.4688,318.9219 Q573.7188,318.9219 572.5781,318.1875 Q571.4531,317.4375 570.8906,316.0938 Q570.3438,314.7344 570.3438,312.9375 Q570.3438,310.9063 571,309.4531 Q571.6563,308 572.9375,307.2188 Q574.2188,306.4375 576.0938,306.4375 Q576.9844,306.4375 577.6563,306.625 Q578.3281,306.7969 579.0156,307.1406 L578.2031,309.1563 Q577.5781,308.8438 577.0313,308.7188 Q576.5,308.5938 576.0156,308.5938 Q574.8438,308.5938 574.1406,309.125 Q573.4375,309.6563 573.1406,310.6094 Q572.8438,311.5625 572.8438,312.8281 Q572.8438,314.8438 573.5625,315.8125 Q574.2813,316.7656 575.875,316.7656 Q576.4688,316.7656 577.0938,316.6094 Q577.7188,316.4531 578.5469,316.0781 L578.5469,318.2969 Q577.8125,318.6094 577.0156,318.7656 Q576.2344,318.9219 575.4688,318.9219 Z " fill="#000000"/><text fill="#000000" font-family="sans-serif" font-size="14" lengthAdjust="spacing" textLength="106" x="590" y="317.432">dev_capability_t</text></g><!--link NetlinkGeneric to nlsocket_t--><g id="link_NetlinkGeneric_nlsocket_t"><path codeLine="39" d="M404.922,227.4508 C398.362,235.5408 399.35,234.28 393,242 C377.7,260.62 363.7036,277.2364 351.8836,291.1564 " fill="none" id="NetlinkGeneric-nlsocket_t" style="stroke:#181818;stroke-width:1.0;"/><polygon fill="#181818" points="412.48,218.13,405.5941,220.271,404.922,227.4508,411.8079,225.3097,412.48,218.13" style="stroke:#181818;stroke-width:1.0;"/><polygon fill="#181818" points="348,295.73,356.8745,291.4587,351.2363,291.9187,350.7763,286.2806,348,295.73" style="stroke:#181818;stroke-width:1.0;"/></g><!--link NetlinkGeneric to nlmsg_t--><g id="link_NetlinkGeneric_nlmsg_t"><path codeLine="40" d="M471.89,218.09 C468.71,247.97 466.1057,272.4438 464.2357,289.9938 " fill="none" id="NetlinkGeneric-to-nlmsg_t" style="stroke:#181818;stroke-width:1.0;stroke-dasharray:7.0,7.0;"/><polygon fill="#181818" points="463.6,295.96,468.5311,287.4345,464.1298,290.9881,460.5761,286.5868,463.6,295.96" style="stroke:#181818;stroke-width:1.0;"/></g><!--link NetlinkGeneric to dev_info_t--><g id="link_NetlinkGeneric_dev_info_t"><path codeLine="41" d="M551.72,161.52 C600.14,182.85 664.78,214.26 717,250 C736.86,263.59 752.7115,278.4437 765.6315,291.6337 " fill="none" id="NetlinkGeneric-to-dev_info_t" style="stroke:#181818;stroke-width:1.0;stroke-dasharray:7.0,7.0;"/><polygon fill="#181818" points="769.83,295.92,766.3897,286.6915,766.3312,292.3481,760.6747,292.2896,769.83,295.92" style="stroke:#181818;stroke-width:1.0;"/></g><!--link NetlinkGeneric to dev_capability_t--><g id="link_NetlinkGeneric_dev_capability_t"><path codeLine="42" d="M551.57,217.05 C576.7,247.14 598.5766,273.3426 613.4166,291.1326 " fill="none" id="NetlinkGeneric-to-dev_capability_t" style="stroke:#181818;stroke-width:1.0;stroke-dasharray:7.0,7.0;"/><polygon fill="#181818" points="617.26,295.74,614.5665,286.2666,614.0572,291.9005,608.4233,291.3911,617.26,295.74" style="stroke:#181818;stroke-width:1.0;"/></g><!--link NetlinkRoute to nlsocket_t--><g id="link_NetlinkRoute_nlsocket_t"><path codeLine="43" d="M321.349,182.7227 C325.489,221.6527 329.7946,262.1337 332.7246,289.6437 " fill="none" id="NetlinkRoute-nlsocket_t" style="stroke:#181818;stroke-width:1.0;"/><polygon fill="#181818" points="320.08,170.79,316.7369,177.1794,321.349,182.7227,324.6921,176.3334,320.08,170.79" style="stroke:#181818;stroke-width:1.0;"/><polygon fill="#181818" points="333.36,295.61,336.3843,286.237,332.8305,290.6381,328.4293,287.0842,333.36,295.61" style="stroke:#181818;stroke-width:1.0;"/></g><!--link NetlinkRoute to rtnl_link_t--><g id="link_NetlinkRoute_rtnl_link_t"><path codeLine="44" d="M291.54,170.79 C266.68,209.72 232.6296,263.0433 215.0596,290.5533 " fill="none" id="NetlinkRoute-to-rtnl_link_t" style="stroke:#181818;stroke-width:1.0;stroke-dasharray:7.0,7.0;"/><polygon fill="#181818" points="211.83,295.61,220.0455,290.1781,214.5213,291.3961,213.3033,285.872,211.83,295.61" style="stroke:#181818;stroke-width:1.0;"/></g><!--link nlsocket_t to nlcb_t--><g id="link_nlsocket_t_nlcb_t"><path codeLine="47" d="M335,340.27 C335,356.92 335,365.4 335,381.96 " fill="none" id="nlsocket_t-nlcb_t" style="stroke:#181818;stroke-width:1.0;"/><polygon fill="none" points="335,328.27,331,334.27,335,340.27,339,334.27,335,328.27" style="stroke:#181818;stroke-width:1.0;"/><polygon fill="#181818" points="335,387.96,339,378.96,335,382.96,331,378.96,335,387.96" style="stroke:#181818;stroke-width:1.0;"/></g><!--link nlmsg_t to nlattr_t--><g id="link_nlmsg_t_nlattr_t"><path codeLine="48" d="M462,328.27 C462,344.92 462,365.4 462,381.96 " fill="none" id="nlmsg_t-to-nlattr_t" style="stroke:#181818;stroke-width:1.0;stroke-dasharray:7.0,7.0;"/><polygon fill="#181818" points="462,387.96,466,378.96,462,382.96,458,378.96,462,387.96" style="stroke:#181818;stroke-width:1.0;"/></g><!--SRC=[VPBBReCm44Nt_efHDtr8oHT4R93QB50NKVQHOmQmCBPhJrAXAlzU0mcrKTAbpvt7dHcJiK06ZeR8T51AXuAaqOmriaJ0pb8FbKHL-fXqI8q9Y5akMbuZF6rbtK21PrIGA-uz-YVW7hP53flDBXJbkbQOPV330CGG0Pz8Ikhs0pKwAKO1e4OwI4teAYxmvNLcIlf8y95YctuP5z0jmW_rgWFr5bDIEVmweHPzYaN3jKOrmWjRUjsP4s7aj4Lt2mOO0iRy6g_fbsX1XVc-iv_Yd_revOreGnUAa3WcpyxNuJq3HreTHXz93XSD9eGJkG1YVrfP2_d93zzW7xOr-SltItimbodn72vIcQZoW0It_2YLf7xgy0plBjGCFu4jBlwsMcNnb0jvjSxc2Uz8KVi7Qk8akU23pfCufCUBl4qGRiN-Si1CDSQ3N6t2UaJNxR9V]--></g></svg>